<svg width="20" height="20" viewBox="0 0 36 36" fill="none" xmlns="http://www.w3.org/2000/svg"><path d="M31.0187 26.1122C29.5154 22.4388 26.6591 19.6837 23.2014 18.3061C25.1557 16.7755 26.3584 14.3265 26.3584 11.7245C26.3584 6.82653 22.6001 3 17.9398 3C13.2794 3 9.52112 6.82653 9.52112 11.5714C9.52112 14.1735 10.7238 16.6224 12.6781 18.1531C9.22045 19.5306 6.36413 22.2857 4.8608 25.9592C4.25947 27.4898 4.4098 29.3265 5.3118 30.7041C6.2138 32.2347 7.86746 33 9.67145 33H26.3584C28.1624 33 29.6657 32.0816 30.7181 30.7041C31.6201 29.3265 31.7704 27.6429 31.0187 26.1122ZM12.5278 11.5714C12.5278 8.5102 14.9331 6.06122 17.9398 6.06122C20.9464 6.06122 23.3517 8.5102 23.3517 11.5714C23.3517 14.6327 20.9464 17.0816 17.9398 17.0816C14.9331 17.0816 12.5278 14.6327 12.5278 11.5714ZM28.1624 29.1735C27.7114 29.7857 27.1101 30.2449 26.3584 30.2449H9.52112C8.76945 30.2449 8.16812 29.9388 7.71712 29.1735C7.26613 28.5612 7.26613 27.949 7.56679 27.3367C9.37079 22.898 13.4298 20.1429 17.9398 20.1429C22.4497 20.1429 26.5087 22.898 28.3127 27.1837C28.6134 27.7959 28.4631 28.5612 28.1624 29.1735Z" fill="#d1d5db"/></svg>