<svg width="20" height="20" viewBox="0 0 36 36" fill="none" xmlns="http://www.w3.org/2000/svg"><path fill-rule="evenodd" clip-rule="evenodd" d="M19.1143 6.3531C18.4098 5.8823 17.5902 5.8823 16.8857 6.3531L16.8602 6.36981L7.59151 12.295C6.56733 12.9484 6 14.0759 6 15.2057V27.8641C6 29.0591 6.94389 30 8.12687 30H27.8731C29.0561 30 30 29.0591 30 27.8641V15.2057C30 14.0373 29.3819 12.9897 28.3793 12.2764L19.1398 6.36981L19.1143 6.3531ZM20.7675 3.8497C19.0609 2.71676 16.939 2.71677 15.2325 3.84971L5.97684 9.76659C5.97705 9.76646 5.97663 9.76672 5.97684 9.76659C4.04619 10.9986 3 13.1039 3 15.2057V27.8641C3 30.7089 5.27999 33 8.12687 33H27.8731C30.72 33 33 30.7089 33 27.8641V15.2057C33 12.8825 31.7476 10.9749 30.078 9.80333C30.0604 9.79095 30.0425 9.77896 30.0243 9.76735L20.7675 3.8497Z" fill="#d1d5db"/></svg>