<svg width="20" height="20" viewBox="0 0 36 36" fill="none" xmlns="http://www.w3.org/2000/svg"><path fill-rule="evenodd" clip-rule="evenodd" d="M7.5 7.80822C7.5 5.12803 9.5737 3 12.2663 3H16.9527C18.4658 3 19.9939 3.57549 21.1443 4.74065L22.692 6.30822H29.7337C32.4263 6.30822 34.5 8.43625 34.5 11.1164V22.1918C34.5 24.872 32.4263 27 29.7337 27H12.2663C9.5737 27 7.5 24.872 7.5 22.1918V7.80822ZM12.2663 6C11.2665 6 10.5 6.74868 10.5 7.80822V22.1918C10.5 23.2513 11.2665 24 12.2663 24H29.7337C30.7335 24 31.5 23.2513 31.5 22.1918V11.1164C31.5 10.0569 30.7335 9.30822 29.7337 9.30822H22.0651C21.6639 9.30822 21.2795 9.14754 20.9977 8.86209L19.0095 6.84839C18.4558 6.28752 17.7117 6 16.9527 6H12.2663Z" fill="#d1d5db"/><path fill-rule="evenodd" clip-rule="evenodd" d="M3 9C3.82843 9 4.5 9.67157 4.5 10.5V25.0878C4.5 27.8263 6.67325 30 9.23377 30H27C27.8284 30 28.5 30.6716 28.5 31.5C28.5 32.3284 27.8284 33 27 33H9.23377C4.93714 33 1.5 29.4027 1.5 25.0878V10.5C1.5 9.67157 2.17157 9 3 9Z" fill="#d1d5db"/></svg>